<svg width="20" height="21" viewBox="0 0 20 21" fill="none" xmlns="http://www.w3.org/2000/svg">
<path d="M16.875 3C17.8906 3 18.75 3.85938 18.75 4.875V18.625C18.75 19.6797 17.8906 20.5 16.875 20.5H3.125C2.07031 20.5 1.25 19.6797 1.25 18.625V4.875C1.25 3.85938 2.07031 3 3.125 3H5V0.96875C5 0.734375 5.19531 0.5 5.46875 0.5H5.78125C6.01562 0.5 6.25 0.734375 6.25 0.96875V3H13.75V0.96875C13.75 0.734375 13.9453 0.5 14.2188 0.5H14.5312C14.7656 0.5 15 0.734375 15 0.96875V3H16.875ZM3.125 4.25C2.77344 4.25 2.5 4.5625 2.5 4.875V6.75H17.5V4.875C17.5 4.5625 17.1875 4.25 16.875 4.25H3.125ZM16.875 19.25C17.1875 19.25 17.5 18.9766 17.5 18.625V8H2.5V18.625C2.5 18.9766 2.77344 19.25 3.125 19.25H16.875ZM7.03125 13H5.46875C5.19531 13 5 12.8047 5 12.5312V10.9688C5 10.7344 5.19531 10.5 5.46875 10.5H7.03125C7.26562 10.5 7.5 10.7344 7.5 10.9688V12.5312C7.5 12.8047 7.26562 13 7.03125 13ZM10.7812 13H9.21875C8.94531 13 8.75 12.8047 8.75 12.5312V10.9688C8.75 10.7344 8.94531 10.5 9.21875 10.5H10.7812C11.0156 10.5 11.25 10.7344 11.25 10.9688V12.5312C11.25 12.8047 11.0156 13 10.7812 13ZM14.5312 13H12.9688C12.6953 13 12.5 12.8047 12.5 12.5312V10.9688C12.5 10.7344 12.6953 10.5 12.9688 10.5H14.5312C14.7656 10.5 15 10.7344 15 10.9688V12.5312C15 12.8047 14.7656 13 14.5312 13ZM10.7812 16.75H9.21875C8.94531 16.75 8.75 16.5547 8.75 16.2812V14.7188C8.75 14.4844 8.94531 14.25 9.21875 14.25H10.7812C11.0156 14.25 11.25 14.4844 11.25 14.7188V16.2812C11.25 16.5547 11.0156 16.75 10.7812 16.75ZM7.03125 16.75H5.46875C5.19531 16.75 5 16.5547 5 16.2812V14.7188C5 14.4844 5.19531 14.25 5.46875 14.25H7.03125C7.26562 14.25 7.5 14.4844 7.5 14.7188V16.2812C7.5 16.5547 7.26562 16.75 7.03125 16.75ZM14.5312 16.75H12.9688C12.6953 16.75 12.5 16.5547 12.5 16.2812V14.7188C12.5 14.4844 12.6953 14.25 12.9688 14.25H14.5312C14.7656 14.25 15 14.4844 15 14.7188V16.2812C15 16.5547 14.7656 16.75 14.5312 16.75Z" fill="#7B2CBF"/>
</svg>
