<svg width="21" height="22" viewBox="0 0 21 22" fill="none" xmlns="http://www.w3.org/2000/svg">
<path d="M10.5 0.812508C15.8516 0.812508 20.1875 5.14845 20.1875 10.5C20.1875 15.8516 15.8516 20.1875 10.5 20.1875C5.14844 20.1875 0.8125 15.8516 0.8125 10.5C0.8125 5.14845 5.14844 0.812508 10.5 0.812508ZM14.0938 13.0391C14.1719 12.9609 14.25 12.8047 14.25 12.6484C14.25 12.4531 14.1328 12.2969 14.0156 12.1797L11.75 10.5V4.87501C11.75 4.56251 11.4375 4.25001 11.125 4.25001H9.875C9.52344 4.25001 9.25 4.56251 9.25 4.87501V10.9688C9.25 11.4766 9.44531 11.9063 9.83594 12.1797L12.4531 14.1328C12.5312 14.2109 12.6875 14.2891 12.8047 14.2891C13.0391 14.2891 13.1953 14.1719 13.3125 14.0156L14.0938 13.0391Z" fill="#7B2CBF"/>
</svg>
