<svg width="369" height="336" viewBox="0 0 369 336" fill="none" xmlns="http://www.w3.org/2000/svg">
<g filter="url(#filter0_dd_413_6607)">
<rect x="12" y="2" width="345" height="312" rx="16" fill="white"/>
<path d="M40.6719 33.625L46.1562 28.1875C46.3906 27.9531 46.7656 27.9531 46.9531 28.1875L47.3281 28.5156C47.5156 28.75 47.5156 29.0781 47.3281 29.3125L42.5 34L47.2812 38.7344C47.5156 38.9688 47.5156 39.2969 47.2812 39.5312L46.9531 39.8594C46.7656 40.0938 46.3906 40.0938 46.1562 39.8594L40.6719 34.4219C40.4375 34.1875 40.4375 33.8594 40.6719 33.625Z" fill="#10002B"/>
<g clip-path="url(#clip0_413_6607)">
<path d="M134.562 40C133.57 40 132.818 39.7947 132.306 39.384C131.794 38.968 131.495 38.3173 131.41 37.432C131.394 37.24 131.437 37.0907 131.538 36.984C131.639 36.872 131.789 36.816 131.986 36.816C132.349 36.816 132.549 37.0133 132.586 37.408C132.645 37.952 132.821 38.3253 133.114 38.528C133.413 38.7253 133.895 38.824 134.562 38.824H135.666C136.178 38.824 136.581 38.7653 136.874 38.648C137.167 38.5253 137.373 38.32 137.49 38.032C137.613 37.7387 137.674 37.3333 137.674 36.816V29.92C137.674 29.5253 137.869 29.328 138.258 29.328C138.653 29.328 138.85 29.5253 138.85 29.92V36.816C138.85 37.92 138.594 38.728 138.082 39.24C137.57 39.7467 136.765 40 135.666 40H134.562ZM148.503 32.072C148.897 32.072 149.095 32.2667 149.095 32.656V39.408C149.095 39.8027 148.897 40 148.503 40C148.113 40 147.919 39.8027 147.919 39.408V38.984C147.369 39.6613 146.508 40 145.335 40H144.887C143.847 40 143.079 39.752 142.583 39.256C142.087 38.7547 141.839 37.984 141.839 36.944V32.656C141.839 32.2667 142.033 32.072 142.423 32.072C142.817 32.072 143.015 32.2667 143.015 32.656V36.944C143.015 37.664 143.148 38.1573 143.415 38.424C143.687 38.6907 144.177 38.824 144.887 38.824H145.335C146.039 38.824 146.628 38.7307 147.103 38.544C147.577 38.352 147.849 38.0613 147.919 37.672V32.656C147.919 32.2667 148.113 32.072 148.503 32.072ZM152.895 40C152.501 40 152.303 39.8027 152.303 39.408V32.656C152.303 32.2667 152.501 32.072 152.895 32.072C153.285 32.072 153.479 32.2667 153.479 32.656V33.088C154.023 32.4107 154.885 32.072 156.063 32.072H156.511C157.551 32.072 158.319 32.32 158.815 32.816C159.311 33.312 159.559 34.08 159.559 35.12V39.408C159.559 39.8027 159.365 40 158.975 40C158.581 40 158.383 39.8027 158.383 39.408V35.12C158.383 34.4 158.247 33.9093 157.975 33.648C157.709 33.3813 157.221 33.248 156.511 33.248H156.063C155.359 33.248 154.77 33.3413 154.295 33.528C153.821 33.7093 153.549 33.9973 153.479 34.392V39.408C153.479 39.8027 153.285 40 152.895 40ZM163.464 36.512V36.96C163.464 37.6693 163.597 38.1573 163.864 38.424C164.13 38.6907 164.624 38.824 165.344 38.824H166.656C167.242 38.824 167.672 38.7627 167.944 38.64C168.221 38.512 168.4 38.2907 168.48 37.976C168.522 37.8 168.589 37.664 168.68 37.568C168.776 37.472 168.917 37.424 169.104 37.424C169.301 37.424 169.45 37.4773 169.552 37.584C169.653 37.6853 169.688 37.8347 169.656 38.032C169.554 38.6987 169.253 39.1947 168.752 39.52C168.256 39.84 167.557 40 166.656 40H165.344C164.304 40 163.533 39.752 163.032 39.256C162.536 38.76 162.288 37.9947 162.288 36.96V35.12C162.288 34.064 162.536 33.2907 163.032 32.8C163.533 32.304 164.304 32.0613 165.344 32.072H166.656C167.696 32.072 168.464 32.32 168.96 32.816C169.456 33.3067 169.704 34.0747 169.704 35.12V35.92C169.704 36.3147 169.509 36.512 169.12 36.512H163.464ZM165.344 33.248C164.624 33.2373 164.13 33.3653 163.864 33.632C163.597 33.8987 163.464 34.3947 163.464 35.12V35.336H168.528V35.12C168.528 34.4 168.394 33.9093 168.128 33.648C167.866 33.3813 167.376 33.248 166.656 33.248H165.344ZM183.248 40H177.192C176.792 40 176.592 39.8027 176.592 39.408C176.592 38.7307 176.693 38.152 176.896 37.672C177.104 37.1867 177.379 36.7733 177.72 36.432C178.061 36.0853 178.44 35.7813 178.856 35.52C179.277 35.2587 179.699 35.0053 180.12 34.76C180.691 34.4347 181.168 34.152 181.552 33.912C181.941 33.6667 182.232 33.416 182.424 33.16C182.621 32.8987 182.72 32.5813 182.72 32.208C182.72 31.552 182.597 31.104 182.352 30.864C182.112 30.624 181.667 30.504 181.016 30.504H179.304C178.765 30.504 178.368 30.584 178.112 30.744C177.861 30.904 177.707 31.1947 177.648 31.616C177.616 31.8027 177.552 31.9467 177.456 32.048C177.365 32.144 177.224 32.192 177.032 32.192C176.835 32.192 176.685 32.1387 176.584 32.032C176.483 31.9253 176.44 31.7733 176.456 31.576C176.552 30.8187 176.832 30.256 177.296 29.888C177.765 29.5147 178.435 29.328 179.304 29.328H181.016C181.997 29.328 182.723 29.5627 183.192 30.032C183.661 30.5013 183.896 31.2267 183.896 32.208C183.896 32.816 183.747 33.328 183.448 33.744C183.155 34.1547 182.763 34.5173 182.272 34.832C181.787 35.1467 181.261 35.464 180.696 35.784C180.184 36.0773 179.725 36.3573 179.32 36.624C178.915 36.8907 178.579 37.1947 178.312 37.536C178.051 37.8773 177.883 38.3067 177.808 38.824H183.248C183.643 38.824 183.84 39.0187 183.84 39.408C183.84 39.8027 183.643 40 183.248 40ZM189.62 40C188.42 40 187.535 39.7173 186.964 39.152C186.399 38.5813 186.116 37.696 186.116 36.496V32.816C186.116 31.6107 186.399 30.728 186.964 30.168C187.535 29.6027 188.42 29.3253 189.62 29.336H190.58C191.78 29.336 192.663 29.6187 193.228 30.184C193.794 30.744 194.076 31.6267 194.076 32.832V36.496C194.076 37.696 193.794 38.5813 193.228 39.152C192.663 39.7173 191.78 40 190.58 40H189.62ZM189.62 38.824H190.58C191.162 38.824 191.62 38.752 191.956 38.608C192.298 38.4587 192.54 38.216 192.684 37.88C192.828 37.5387 192.9 37.0773 192.9 36.496V32.832C192.9 32.2507 192.828 31.792 192.684 31.456C192.54 31.1147 192.298 30.872 191.956 30.728C191.62 30.584 191.162 30.512 190.58 30.512H189.62C189.039 30.5013 188.578 30.568 188.236 30.712C187.9 30.8507 187.658 31.0907 187.508 31.432C187.364 31.768 187.292 32.2293 187.292 32.816V36.496C187.292 37.0773 187.364 37.5387 187.508 37.88C187.652 38.216 187.892 38.4587 188.228 38.608C188.57 38.752 189.034 38.824 189.62 38.824ZM189.924 35.4C189.535 35.4 189.34 35.2053 189.34 34.816V34.448C189.34 34.0693 189.535 33.88 189.924 33.88H190.276C190.65 33.88 190.836 34.0693 190.836 34.448V34.816C190.836 35.2053 190.65 35.4 190.276 35.4H189.924ZM202.951 40H196.895C196.495 40 196.295 39.8027 196.295 39.408C196.295 38.7307 196.397 38.152 196.599 37.672C196.807 37.1867 197.082 36.7733 197.423 36.432C197.765 36.0853 198.143 35.7813 198.559 35.52C198.981 35.2587 199.402 35.0053 199.823 34.76C200.394 34.4347 200.871 34.152 201.255 33.912C201.645 33.6667 201.935 33.416 202.127 33.16C202.325 32.8987 202.423 32.5813 202.423 32.208C202.423 31.552 202.301 31.104 202.055 30.864C201.815 30.624 201.37 30.504 200.719 30.504H199.007C198.469 30.504 198.071 30.584 197.815 30.744C197.565 30.904 197.41 31.1947 197.351 31.616C197.319 31.8027 197.255 31.9467 197.159 32.048C197.069 32.144 196.927 32.192 196.735 32.192C196.538 32.192 196.389 32.1387 196.287 32.032C196.186 31.9253 196.143 31.7733 196.159 31.576C196.255 30.8187 196.535 30.256 196.999 29.888C197.469 29.5147 198.138 29.328 199.007 29.328H200.719C201.701 29.328 202.426 29.5627 202.895 30.032C203.365 30.5013 203.599 31.2267 203.599 32.208C203.599 32.816 203.45 33.328 203.151 33.744C202.858 34.1547 202.466 34.5173 201.975 34.832C201.49 35.1467 200.965 35.464 200.399 35.784C199.887 36.0773 199.429 36.3573 199.023 36.624C198.618 36.8907 198.282 37.1947 198.015 37.536C197.754 37.8773 197.586 38.3067 197.511 38.824H202.951C203.346 38.824 203.543 39.0187 203.543 39.408C203.543 39.8027 203.346 40 202.951 40ZM207.895 40C207.5 40 207.303 39.8027 207.303 39.408V30.944L207.679 30.752L205.927 32.416C205.804 32.5333 205.676 32.6027 205.543 32.624C205.415 32.64 205.287 32.584 205.159 32.456C204.903 32.2 204.914 31.9307 205.191 31.648L207.255 29.624C207.447 29.4267 207.69 29.328 207.983 29.328C208.314 29.328 208.479 29.5253 208.479 29.92V39.408C208.479 39.8027 208.284 40 207.895 40Z" fill="#10002B"/>
</g>
<path d="M287.281 34.4219L281.797 39.8594C281.562 40.0938 281.188 40.0938 281 39.8594L280.672 39.5312C280.438 39.2969 280.438 38.9688 280.672 38.7344L285.453 34L280.672 29.3125C280.438 29.0781 280.438 28.75 280.672 28.5156L281 28.1875C281.188 27.9531 281.562 27.9531 281.797 28.1875L287.328 33.625C287.516 33.8594 287.516 34.1875 287.281 34.4219Z" fill="#10002B"/>
<path d="M244.718 87C244.47 87 244.347 86.8763 244.347 86.629V78.852L244.683 78.803L243.164 80.287C243.08 80.371 242.996 80.4153 242.912 80.42C242.828 80.4247 242.744 80.385 242.66 80.301C242.501 80.133 242.503 79.9603 242.667 79.783L244.326 78.166C244.438 78.04 244.589 77.977 244.781 77.977C244.981 77.977 245.082 78.1007 245.082 78.348V86.629C245.082 86.8763 244.96 87 244.718 87Z" fill="#10002B"/>
<path d="M286.748 87H281.323C281.071 87 280.945 86.8763 280.945 86.629C280.945 86.097 281.018 85.6397 281.162 85.257C281.307 84.8743 281.517 84.536 281.792 84.242C282.072 83.9433 282.411 83.6633 282.807 83.402C283.209 83.1407 283.661 82.8653 284.165 82.576C284.627 82.31 285.017 82.0743 285.334 81.869C285.652 81.659 285.892 81.4397 286.055 81.211C286.223 80.9777 286.307 80.6907 286.307 80.35C286.307 79.7387 286.188 79.314 285.95 79.076C285.712 78.8333 285.285 78.712 284.669 78.712H283.171C282.63 78.712 282.236 78.8053 281.988 78.992C281.746 79.1787 281.603 79.5053 281.561 79.972C281.547 80.0933 281.51 80.1843 281.449 80.245C281.389 80.3057 281.3 80.336 281.183 80.336C281.062 80.336 280.969 80.3033 280.903 80.238C280.838 80.168 280.81 80.0723 280.819 79.951C280.875 79.2743 281.095 78.7773 281.477 78.46C281.86 78.138 282.425 77.977 283.171 77.977H284.669C285.486 77.977 286.086 78.1683 286.468 78.551C286.851 78.9337 287.042 79.5333 287.042 80.35C287.042 80.8307 286.928 81.2367 286.699 81.568C286.475 81.8947 286.172 82.1863 285.789 82.443C285.411 82.695 284.991 82.9517 284.529 83.213C283.937 83.5537 283.44 83.8617 283.038 84.137C282.637 84.4077 282.324 84.7063 282.1 85.033C281.881 85.355 281.748 85.7657 281.701 86.265H286.748C286.996 86.265 287.119 86.3863 287.119 86.629C287.119 86.8763 286.996 87 286.748 87Z" fill="#10002B"/>
<path d="M43.0984 126.986C42.3051 126.986 41.7054 126.818 41.2994 126.482C40.8934 126.141 40.6624 125.607 40.6064 124.879C40.5971 124.758 40.6251 124.664 40.6904 124.599C40.7558 124.529 40.8491 124.494 40.9704 124.494C41.1991 124.494 41.3228 124.615 41.3414 124.858C41.3881 125.376 41.5421 125.738 41.8034 125.943C42.0694 126.148 42.5011 126.251 43.0984 126.251H44.6944C45.3618 126.251 45.8238 126.123 46.0804 125.866C46.3418 125.605 46.4724 125.147 46.4724 124.494C46.4724 123.836 46.3418 123.379 46.0804 123.122C45.8238 122.861 45.3618 122.73 44.6944 122.73H43.3994C43.1521 122.73 43.0284 122.609 43.0284 122.366C43.0284 122.119 43.1521 121.995 43.3994 121.995H44.8834C45.4014 121.99 45.7584 121.853 45.9544 121.582C46.1504 121.307 46.2484 120.896 46.2484 120.35C46.2484 119.739 46.1294 119.314 45.8914 119.076C45.6534 118.833 45.2264 118.712 44.6104 118.712H43.2524C42.7111 118.712 42.3168 118.805 42.0694 118.992C41.8268 119.179 41.6844 119.505 41.6424 119.972C41.6144 120.215 41.4884 120.336 41.2644 120.336C41.1431 120.336 41.0498 120.303 40.9844 120.238C40.9191 120.168 40.8934 120.072 40.9074 119.951C40.9588 119.274 41.1758 118.777 41.5584 118.46C41.9411 118.138 42.5058 117.977 43.2524 117.977H44.6104C45.4271 117.977 46.0268 118.168 46.4094 118.551C46.7921 118.934 46.9834 119.533 46.9834 120.35C46.9834 121.288 46.6451 121.93 45.9684 122.275C46.3978 122.457 46.7104 122.732 46.9064 123.101C47.1071 123.465 47.2074 123.929 47.2074 124.494C47.2074 125.353 47.0068 125.983 46.6054 126.384C46.2041 126.785 45.5671 126.986 44.6944 126.986H43.0984Z" fill="#10002B"/>
<path d="M85.8975 127C85.6502 127 85.5265 126.876 85.5265 126.629L85.5825 118.985L85.7855 118.95L81.5225 124.494L81.4035 124.312L86.9685 124.305C87.0899 124.305 87.1809 124.338 87.2415 124.403C87.3069 124.468 87.3395 124.559 87.3395 124.676C87.3395 124.919 87.2159 125.04 86.9685 125.04H81.0255C80.7782 125.04 80.6545 124.919 80.6545 124.676C80.6545 124.559 80.7059 124.431 80.8085 124.291L85.4915 118.208C85.5569 118.119 85.6245 118.059 85.6945 118.026C85.7692 117.993 85.8602 117.977 85.9675 117.977C86.2009 117.977 86.3175 118.101 86.3175 118.348L86.2615 126.629C86.2615 126.876 86.1402 127 85.8975 127Z" fill="#10002B"/>
<path d="M123.26 127C122.467 127 121.867 126.83 121.461 126.489C121.055 126.148 120.824 125.614 120.768 124.886C120.759 124.765 120.787 124.671 120.852 124.606C120.917 124.536 121.011 124.501 121.132 124.501C121.361 124.501 121.484 124.622 121.503 124.865C121.55 125.383 121.704 125.747 121.965 125.957C122.231 126.162 122.663 126.265 123.26 126.265H124.716C125.383 126.265 125.845 126.134 126.102 125.873C126.363 125.607 126.494 125.145 126.494 124.487V123.521C126.494 122.863 126.363 122.403 126.102 122.142C125.841 121.881 125.379 121.75 124.716 121.75H123.68C122.807 121.75 122.203 121.899 121.867 122.198C121.792 122.263 121.718 122.31 121.643 122.338C121.568 122.366 121.48 122.364 121.377 122.331L121.3 122.31C121.095 122.254 120.992 122.119 120.992 121.904V118.348C120.992 118.101 121.113 117.977 121.356 117.977H126.788C127.031 117.977 127.152 118.101 127.152 118.348C127.152 118.591 127.031 118.712 126.788 118.712H121.727V121.4C122.194 121.143 122.845 121.015 123.68 121.015H124.716C125.584 121.015 126.219 121.216 126.62 121.617C127.026 122.018 127.229 122.653 127.229 123.521V124.487C127.229 125.355 127.026 125.992 126.62 126.398C126.219 126.799 125.584 127 124.716 127H123.26Z" fill="#10002B"/>
<path d="M163.274 126.986C162.406 126.986 161.769 126.785 161.363 126.384C160.962 125.983 160.761 125.353 160.761 124.494V120.35C160.761 119.533 160.953 118.934 161.335 118.551C161.718 118.168 162.318 117.977 163.134 117.977H164.87C165.617 117.977 166.182 118.138 166.564 118.46C166.947 118.777 167.164 119.274 167.215 119.951C167.229 120.072 167.204 120.168 167.138 120.238C167.078 120.303 166.987 120.336 166.865 120.336C166.632 120.336 166.504 120.215 166.48 119.972C166.443 119.505 166.301 119.179 166.053 118.992C165.811 118.805 165.416 118.712 164.87 118.712H163.134C162.523 118.712 162.096 118.833 161.853 119.076C161.615 119.314 161.496 119.739 161.496 120.35V121.911C161.814 121.323 162.406 121.029 163.274 121.029H164.73C165.598 121.029 166.233 121.232 166.634 121.638C167.036 122.039 167.236 122.674 167.236 123.542V124.48C167.236 125.343 167.036 125.978 166.634 126.384C166.233 126.785 165.598 126.986 164.73 126.986H163.274ZM163.274 126.251H164.73C165.388 126.251 165.848 126.12 166.109 125.859C166.371 125.593 166.501 125.133 166.501 124.48V123.542C166.501 122.879 166.371 122.417 166.109 122.156C165.848 121.895 165.388 121.764 164.73 121.764H163.274C162.607 121.764 162.143 121.895 161.881 122.156C161.625 122.413 161.496 122.87 161.496 123.528V124.494C161.496 125.147 161.625 125.605 161.881 125.866C162.143 126.123 162.607 126.251 163.274 126.251Z" fill="#10002B"/>
<path d="M203.009 127C202.762 127 202.64 126.872 202.645 126.615C202.65 125.957 202.682 125.378 202.743 124.879C202.804 124.38 202.906 123.939 203.051 123.556C203.196 123.173 203.399 122.826 203.66 122.513C203.926 122.2 204.264 121.902 204.675 121.617C205.011 121.379 205.282 121.127 205.487 120.861C205.692 120.595 205.844 120.292 205.942 119.951C206.045 119.606 206.105 119.193 206.124 118.712H201.511C201.264 118.712 201.14 118.591 201.14 118.348C201.14 118.101 201.264 117.977 201.511 117.977H206.495C206.738 117.977 206.859 118.101 206.859 118.348C206.859 118.978 206.801 119.526 206.684 119.993C206.572 120.46 206.385 120.873 206.124 121.232C205.867 121.587 205.524 121.913 205.095 122.212C204.764 122.445 204.488 122.686 204.269 122.933C204.05 123.18 203.875 123.465 203.744 123.787C203.618 124.104 203.527 124.492 203.471 124.949C203.42 125.406 203.389 125.962 203.38 126.615C203.375 126.872 203.252 127 203.009 127Z" fill="#10002B"/>
<path d="M246.125 122.324C246.914 122.679 247.308 123.404 247.308 124.501C247.308 125.364 247.107 125.997 246.706 126.398C246.305 126.799 245.67 127 244.802 127H243.206C242.338 127 241.701 126.799 241.295 126.398C240.894 125.997 240.693 125.364 240.693 124.501C240.693 123.39 241.104 122.658 241.925 122.303C241.3 121.925 240.987 121.269 240.987 120.336C240.987 119.524 241.178 118.929 241.561 118.551C241.944 118.168 242.543 117.977 243.36 117.977H244.718C245.535 117.977 246.132 118.168 246.51 118.551C246.893 118.929 247.084 119.524 247.084 120.336C247.084 121.293 246.764 121.955 246.125 122.324ZM243.36 118.712C242.749 118.712 242.322 118.833 242.079 119.076C241.841 119.314 241.722 119.734 241.722 120.336C241.722 120.961 241.841 121.398 242.079 121.645C242.317 121.888 242.728 122.009 243.311 122.009L244.928 122.002C245.292 122.002 245.577 121.941 245.782 121.82C245.992 121.694 246.139 121.51 246.223 121.267C246.307 121.02 246.349 120.709 246.349 120.336C246.349 119.734 246.23 119.314 245.992 119.076C245.754 118.833 245.329 118.712 244.718 118.712H243.36ZM244.802 126.265C245.465 126.265 245.924 126.137 246.181 125.88C246.442 125.619 246.573 125.159 246.573 124.501C246.573 123.843 246.442 123.386 246.181 123.129C245.924 122.872 245.465 122.744 244.802 122.744H243.206C242.539 122.744 242.074 122.872 241.813 123.129C241.556 123.386 241.428 123.843 241.428 124.501C241.428 125.159 241.556 125.619 241.813 125.88C242.074 126.137 242.539 126.265 243.206 126.265H244.802Z" fill="#10002B"/>
<path d="M284.73 117.991C285.598 117.991 286.233 118.192 286.634 118.593C287.036 118.994 287.236 119.624 287.236 120.483V124.627C287.236 125.444 287.045 126.043 286.662 126.426C286.284 126.809 285.687 127 284.87 127H283.134C282.388 127 281.823 126.839 281.44 126.517C281.058 126.195 280.838 125.698 280.782 125.026C280.773 124.905 280.799 124.811 280.859 124.746C280.925 124.676 281.016 124.641 281.132 124.641C281.366 124.641 281.494 124.762 281.517 125.005C281.559 125.467 281.702 125.794 281.944 125.985C282.192 126.172 282.588 126.265 283.134 126.265H284.87C285.482 126.265 285.906 126.146 286.144 125.908C286.382 125.665 286.501 125.238 286.501 124.627V123.066C286.189 123.654 285.598 123.948 284.73 123.948H283.274C282.406 123.948 281.769 123.747 281.363 123.346C280.962 122.94 280.761 122.303 280.761 121.435V120.497C280.761 119.629 280.962 118.994 281.363 118.593C281.769 118.192 282.406 117.991 283.274 117.991H284.73ZM284.73 118.726H283.274C282.616 118.726 282.154 118.857 281.888 119.118C281.627 119.379 281.496 119.839 281.496 120.497V121.435C281.496 122.093 281.627 122.555 281.888 122.821C282.154 123.082 282.616 123.213 283.274 123.213H284.73C285.393 123.213 285.853 123.085 286.109 122.828C286.371 122.567 286.501 122.107 286.501 121.449V120.483C286.501 119.825 286.371 119.368 286.109 119.111C285.853 118.854 285.393 118.726 284.73 118.726Z" fill="#10002B"/>
<path d="M40.4451 167C40.1978 167 40.0741 166.876 40.0741 166.629V158.852L40.4101 158.803L38.8911 160.287C38.8071 160.371 38.7231 160.415 38.6391 160.42C38.5551 160.425 38.4711 160.385 38.3871 160.301C38.2284 160.133 38.2308 159.96 38.3941 159.783L40.0531 158.166C40.1651 158.04 40.3168 157.977 40.5081 157.977C40.7088 157.977 40.8091 158.101 40.8091 158.348V166.629C40.8091 166.876 40.6878 167 40.4451 167ZM46.066 167.028C45.0533 167.028 44.3137 166.795 43.847 166.328C43.3803 165.861 43.147 165.122 43.147 164.109V160.917C43.147 159.904 43.3803 159.167 43.847 158.705C44.3183 158.243 45.058 158.014 46.066 158.019H46.906C47.9187 158.019 48.656 158.252 49.118 158.719C49.5847 159.181 49.818 159.918 49.818 160.931V164.109C49.818 165.122 49.5847 165.861 49.118 166.328C48.656 166.795 47.9187 167.028 46.906 167.028H46.066ZM46.066 166.293H46.906C47.4427 166.293 47.8697 166.223 48.187 166.083C48.5043 165.943 48.733 165.714 48.873 165.397C49.013 165.075 49.083 164.646 49.083 164.109V160.931C49.083 160.394 49.013 159.967 48.873 159.65C48.733 159.333 48.5043 159.104 48.187 158.964C47.8697 158.824 47.4427 158.754 46.906 158.754H46.066C45.5293 158.749 45.1 158.817 44.778 158.957C44.4607 159.092 44.232 159.319 44.092 159.636C43.952 159.953 43.882 160.38 43.882 160.917V164.109C43.882 164.646 43.952 165.075 44.092 165.397C44.232 165.714 44.4607 165.943 44.778 166.083C45.0953 166.223 45.5247 166.293 46.066 166.293ZM46.36 163.073C46.0893 163.073 45.954 162.935 45.954 162.66V162.394C45.954 162.128 46.0893 161.995 46.36 161.995H46.619C46.885 161.995 47.018 162.128 47.018 162.394V162.66C47.018 162.935 46.885 163.073 46.619 163.073H46.36Z" fill="#10002B"/>
<path d="M82.2361 167C81.9888 167 81.8651 166.876 81.8651 166.629V158.852L82.2011 158.803L80.6821 160.287C80.5981 160.371 80.5141 160.415 80.4301 160.42C80.3461 160.425 80.2621 160.385 80.1781 160.301C80.0194 160.133 80.0218 159.96 80.1851 159.783L81.8441 158.166C81.9561 158.04 82.1078 157.977 82.2991 157.977C82.4998 157.977 82.6001 158.101 82.6001 158.348V166.629C82.6001 166.876 82.4788 167 82.2361 167ZM87.199 167C86.9517 167 86.828 166.876 86.828 166.629V158.852L87.164 158.803L85.645 160.287C85.561 160.371 85.477 160.415 85.393 160.42C85.309 160.425 85.225 160.385 85.141 160.301C84.9823 160.133 84.9847 159.96 85.148 159.783L86.807 158.166C86.919 158.04 87.0707 157.977 87.262 157.977C87.4627 157.977 87.563 158.101 87.563 158.348V166.629C87.563 166.876 87.4417 167 87.199 167Z" fill="#10002B"/>
<path d="M120.746 167C120.499 167 120.375 166.876 120.375 166.629V158.852L120.711 158.803L119.192 160.287C119.108 160.371 119.024 160.415 118.94 160.42C118.856 160.425 118.772 160.385 118.688 160.301C118.529 160.133 118.532 159.96 118.695 159.783L120.354 158.166C120.466 158.04 120.618 157.977 120.809 157.977C121.01 157.977 121.11 158.101 121.11 158.348V166.629C121.11 166.876 120.989 167 120.746 167ZM129.23 167H123.805C123.553 167 123.427 166.876 123.427 166.629C123.427 166.097 123.499 165.64 123.644 165.257C123.788 164.874 123.998 164.536 124.274 164.242C124.554 163.943 124.892 163.663 125.289 163.402C125.69 163.141 126.143 162.865 126.647 162.576C127.109 162.31 127.498 162.074 127.816 161.869C128.133 161.659 128.373 161.44 128.537 161.211C128.705 160.978 128.789 160.691 128.789 160.35C128.789 159.739 128.67 159.314 128.432 159.076C128.194 158.833 127.767 158.712 127.151 158.712H125.653C125.111 158.712 124.717 158.805 124.47 158.992C124.227 159.179 124.085 159.505 124.043 159.972C124.029 160.093 123.991 160.184 123.931 160.245C123.87 160.306 123.781 160.336 123.665 160.336C123.543 160.336 123.45 160.303 123.385 160.238C123.319 160.168 123.291 160.072 123.301 159.951C123.357 159.274 123.576 158.777 123.959 158.46C124.341 158.138 124.906 157.977 125.653 157.977H127.151C127.967 157.977 128.567 158.168 128.95 158.551C129.332 158.934 129.524 159.533 129.524 160.35C129.524 160.831 129.409 161.237 129.181 161.568C128.957 161.895 128.653 162.186 128.271 162.443C127.893 162.695 127.473 162.952 127.011 163.213C126.418 163.554 125.921 163.862 125.52 164.137C125.118 164.408 124.806 164.706 124.582 165.033C124.362 165.355 124.229 165.766 124.183 166.265H129.23C129.477 166.265 129.601 166.386 129.601 166.629C129.601 166.876 129.477 167 129.23 167Z" fill="#10002B"/>
<path d="M160.575 167C160.328 167 160.204 166.876 160.204 166.629V158.852L160.54 158.803L159.021 160.287C158.937 160.371 158.853 160.415 158.769 160.42C158.685 160.425 158.601 160.385 158.517 160.301C158.358 160.133 158.361 159.96 158.524 159.783L160.183 158.166C160.295 158.04 160.447 157.977 160.638 157.977C160.839 157.977 160.939 158.101 160.939 158.348V166.629C160.939 166.876 160.818 167 160.575 167ZM165.58 166.986C164.787 166.986 164.187 166.818 163.781 166.482C163.375 166.141 163.144 165.607 163.088 164.879C163.079 164.758 163.107 164.664 163.172 164.599C163.237 164.529 163.331 164.494 163.452 164.494C163.681 164.494 163.804 164.615 163.823 164.858C163.87 165.376 164.024 165.738 164.285 165.943C164.551 166.148 164.983 166.251 165.58 166.251H167.176C167.843 166.251 168.305 166.123 168.562 165.866C168.823 165.605 168.954 165.147 168.954 164.494C168.954 163.836 168.823 163.379 168.562 163.122C168.305 162.861 167.843 162.73 167.176 162.73H165.881C165.634 162.73 165.51 162.609 165.51 162.366C165.51 162.119 165.634 161.995 165.881 161.995H167.365C167.883 161.99 168.24 161.853 168.436 161.582C168.632 161.307 168.73 160.896 168.73 160.35C168.73 159.739 168.611 159.314 168.373 159.076C168.135 158.833 167.708 158.712 167.092 158.712H165.734C165.193 158.712 164.798 158.805 164.551 158.992C164.308 159.179 164.166 159.505 164.124 159.972C164.096 160.215 163.97 160.336 163.746 160.336C163.625 160.336 163.531 160.303 163.466 160.238C163.401 160.168 163.375 160.072 163.389 159.951C163.44 159.274 163.657 158.777 164.04 158.46C164.423 158.138 164.987 157.977 165.734 157.977H167.092C167.909 157.977 168.508 158.168 168.891 158.551C169.274 158.934 169.465 159.533 169.465 160.35C169.465 161.288 169.127 161.93 168.45 162.275C168.879 162.457 169.192 162.732 169.388 163.101C169.589 163.465 169.689 163.929 169.689 164.494C169.689 165.353 169.488 165.983 169.087 166.384C168.686 166.785 168.049 166.986 167.176 166.986H165.58Z" fill="#10002B"/>
<path d="M200.903 167C200.656 167 200.532 166.876 200.532 166.629V158.852L200.868 158.803L199.349 160.287C199.265 160.371 199.181 160.415 199.097 160.42C199.013 160.425 198.929 160.385 198.845 160.301C198.686 160.133 198.689 159.96 198.852 159.783L200.511 158.166C200.623 158.04 200.775 157.977 200.966 157.977C201.167 157.977 201.267 158.101 201.267 158.348V166.629C201.267 166.876 201.146 167 200.903 167ZM208.379 167C208.132 167 208.008 166.876 208.008 166.629L208.064 158.985L208.267 158.95L204.004 164.494L203.885 164.312L209.45 164.305C209.571 164.305 209.662 164.338 209.723 164.403C209.788 164.468 209.821 164.559 209.821 164.676C209.821 164.919 209.697 165.04 209.45 165.04H203.507C203.26 165.04 203.136 164.919 203.136 164.676C203.136 164.559 203.187 164.431 203.29 164.291L207.973 158.208C208.038 158.119 208.106 158.059 208.176 158.026C208.251 157.993 208.342 157.977 208.449 157.977C208.682 157.977 208.799 158.101 208.799 158.348L208.743 166.629C208.743 166.876 208.622 167 208.379 167Z" fill="#10002B"/>
<path d="M240.548 167C240.3 167 240.177 166.876 240.177 166.629V158.852L240.513 158.803L238.994 160.287C238.91 160.371 238.826 160.415 238.742 160.42C238.658 160.425 238.574 160.385 238.49 160.301C238.331 160.133 238.333 159.96 238.497 159.783L240.156 158.166C240.268 158.04 240.419 157.977 240.611 157.977C240.811 157.977 240.912 158.101 240.912 158.348V166.629C240.912 166.876 240.79 167 240.548 167ZM245.742 167C244.948 167 244.349 166.83 243.943 166.489C243.537 166.148 243.306 165.614 243.25 164.886C243.24 164.765 243.268 164.671 243.334 164.606C243.399 164.536 243.492 164.501 243.614 164.501C243.842 164.501 243.966 164.622 243.985 164.865C244.031 165.383 244.185 165.747 244.447 165.957C244.713 166.162 245.144 166.265 245.742 166.265H247.198C247.865 166.265 248.327 166.134 248.584 165.873C248.845 165.607 248.976 165.145 248.976 164.487V163.521C248.976 162.863 248.845 162.403 248.584 162.142C248.322 161.881 247.86 161.75 247.198 161.75H246.162C245.289 161.75 244.685 161.899 244.349 162.198C244.274 162.263 244.199 162.31 244.125 162.338C244.05 162.366 243.961 162.364 243.859 162.331L243.782 162.31C243.576 162.254 243.474 162.119 243.474 161.904V158.348C243.474 158.101 243.595 157.977 243.838 157.977H249.27C249.512 157.977 249.634 158.101 249.634 158.348C249.634 158.591 249.512 158.712 249.27 158.712H244.209V161.4C244.675 161.143 245.326 161.015 246.162 161.015H247.198C248.066 161.015 248.7 161.216 249.102 161.617C249.508 162.018 249.711 162.653 249.711 163.521V164.487C249.711 165.355 249.508 165.992 249.102 166.398C248.7 166.799 248.066 167 247.198 167H245.742Z" fill="#10002B"/>
<path d="M280.541 167C280.293 167 280.17 166.876 280.17 166.629V158.852L280.506 158.803L278.987 160.287C278.903 160.371 278.819 160.415 278.735 160.42C278.651 160.425 278.567 160.385 278.483 160.301C278.324 160.133 278.326 159.96 278.49 159.783L280.149 158.166C280.261 158.04 280.412 157.977 280.604 157.977C280.804 157.977 280.905 158.101 280.905 158.348V166.629C280.905 166.876 280.783 167 280.541 167ZM285.756 166.986C284.888 166.986 284.251 166.785 283.845 166.384C283.443 165.983 283.243 165.353 283.243 164.494V160.35C283.243 159.533 283.434 158.934 283.817 158.551C284.199 158.168 284.799 157.977 285.616 157.977H287.352C288.098 157.977 288.663 158.138 289.046 158.46C289.428 158.777 289.645 159.274 289.697 159.951C289.711 160.072 289.685 160.168 289.62 160.238C289.559 160.303 289.468 160.336 289.347 160.336C289.113 160.336 288.985 160.215 288.962 159.972C288.924 159.505 288.782 159.179 288.535 158.992C288.292 158.805 287.898 158.712 287.352 158.712H285.616C285.004 158.712 284.577 158.833 284.335 159.076C284.097 159.314 283.978 159.739 283.978 160.35V161.911C284.295 161.323 284.888 161.029 285.756 161.029H287.212C288.08 161.029 288.714 161.232 289.116 161.638C289.517 162.039 289.718 162.674 289.718 163.542V164.48C289.718 165.343 289.517 165.978 289.116 166.384C288.714 166.785 288.08 166.986 287.212 166.986H285.756ZM285.756 166.251H287.212C287.87 166.251 288.329 166.12 288.591 165.859C288.852 165.593 288.983 165.133 288.983 164.48V163.542C288.983 162.879 288.852 162.417 288.591 162.156C288.329 161.895 287.87 161.764 287.212 161.764H285.756C285.088 161.764 284.624 161.895 284.363 162.156C284.106 162.413 283.978 162.87 283.978 163.528V164.494C283.978 165.147 284.106 165.605 284.363 165.866C284.624 166.123 285.088 166.251 285.756 166.251Z" fill="#10002B"/>
<g opacity="0.25">
<rect x="44" y="184" width="20" height="36" fill="#FED7D7"/>
</g>
<circle cx="44" cy="202" r="18" fill="#FED7D7"/>
<path d="M41.1553 207C40.7633 207 40.5673 206.804 40.5673 206.412V199.188L40.8893 198.964L39.3493 200.406C39.2326 200.518 39.1089 200.586 38.9783 200.609C38.8476 200.628 38.7193 200.574 38.5933 200.448C38.3413 200.196 38.3553 199.93 38.6353 199.65L40.5113 197.802C40.7073 197.606 40.9499 197.508 41.2393 197.508C41.5753 197.508 41.7433 197.704 41.7433 198.096V206.412C41.7433 206.804 41.5473 207 41.1553 207ZM45.6092 207C45.2126 207 45.0212 206.795 45.0352 206.384C45.0492 205.665 45.0959 205.054 45.1752 204.55C45.2546 204.041 45.3759 203.605 45.5392 203.241C45.7026 202.872 45.9149 202.548 46.1762 202.268C46.4422 201.983 46.7666 201.708 47.1492 201.442C47.4292 201.223 47.6626 200.982 47.8492 200.721C48.0406 200.46 48.1876 200.163 48.2902 199.832C48.3976 199.496 48.4652 199.113 48.4932 198.684H44.0692C43.6772 198.684 43.4812 198.488 43.4812 198.096C43.4812 197.704 43.6772 197.508 44.0692 197.508H49.0952C49.4872 197.508 49.6832 197.704 49.6832 198.096C49.6832 198.763 49.6179 199.361 49.4872 199.888C49.3612 200.411 49.1606 200.877 48.8852 201.288C48.6146 201.699 48.2646 202.067 47.8352 202.394C47.5272 202.609 47.2706 202.828 47.0652 203.052C46.8599 203.271 46.6966 203.528 46.5752 203.822C46.4539 204.111 46.3652 204.464 46.3092 204.879C46.2532 205.29 46.2206 205.791 46.2112 206.384C46.1972 206.795 45.9966 207 45.6092 207Z" fill="#10002B"/>
<g opacity="0.25">
<rect x="64" y="184" width="40" height="36" fill="#FED7D7"/>
</g>
<path d="M80.4724 207C80.2251 207 80.1014 206.876 80.1014 206.629V198.852L80.4374 198.803L78.9184 200.287C78.8344 200.371 78.7504 200.415 78.6664 200.42C78.5824 200.425 78.4984 200.385 78.4144 200.301C78.2558 200.133 78.2581 199.96 78.4214 199.783L80.0804 198.166C80.1924 198.04 80.3441 197.977 80.5354 197.977C80.7361 197.977 80.8364 198.101 80.8364 198.348V206.629C80.8364 206.876 80.7151 207 80.4724 207ZM88.6063 202.324C89.395 202.679 89.7893 203.404 89.7893 204.501C89.7893 205.364 89.5887 205.997 89.1873 206.398C88.786 206.799 88.1513 207 87.2833 207H85.6873C84.8193 207 84.1823 206.799 83.7763 206.398C83.375 205.997 83.1743 205.364 83.1743 204.501C83.1743 203.39 83.585 202.658 84.4063 202.303C83.781 201.925 83.4683 201.269 83.4683 200.336C83.4683 199.524 83.6597 198.929 84.0423 198.551C84.425 198.168 85.0247 197.977 85.8413 197.977H87.1993C88.016 197.977 88.6133 198.168 88.9913 198.551C89.374 198.929 89.5653 199.524 89.5653 200.336C89.5653 201.293 89.2457 201.955 88.6063 202.324ZM85.8413 198.712C85.23 198.712 84.803 198.833 84.5603 199.076C84.3223 199.314 84.2033 199.734 84.2033 200.336C84.2033 200.961 84.3223 201.398 84.5603 201.645C84.7983 201.888 85.209 202.009 85.7923 202.009L87.4093 202.002C87.7733 202.002 88.058 201.941 88.2633 201.82C88.4733 201.694 88.6203 201.51 88.7043 201.267C88.7883 201.02 88.8303 200.709 88.8303 200.336C88.8303 199.734 88.7113 199.314 88.4733 199.076C88.2353 198.833 87.8107 198.712 87.1993 198.712H85.8413ZM87.2833 206.265C87.946 206.265 88.4057 206.137 88.6623 205.88C88.9237 205.619 89.0543 205.159 89.0543 204.501C89.0543 203.843 88.9237 203.386 88.6623 203.129C88.4057 202.872 87.946 202.744 87.2833 202.744H85.6873C85.02 202.744 84.5557 202.872 84.2943 203.129C84.0377 203.386 83.9093 203.843 83.9093 204.501C83.9093 205.159 84.0377 205.619 84.2943 205.88C84.5557 206.137 85.02 206.265 85.6873 206.265H87.2833Z" fill="#10002B"/>
<g opacity="0.25">
<rect x="104" y="184" width="40" height="36" fill="#FED7D7"/>
</g>
<path d="M120.541 207C120.293 207 120.17 206.876 120.17 206.629V198.852L120.506 198.803L118.987 200.287C118.903 200.371 118.819 200.415 118.735 200.42C118.651 200.425 118.567 200.385 118.483 200.301C118.324 200.133 118.326 199.96 118.49 199.783L120.149 198.166C120.261 198.04 120.412 197.977 120.604 197.977C120.804 197.977 120.905 198.101 120.905 198.348V206.629C120.905 206.876 120.783 207 120.541 207ZM127.212 197.991C128.08 197.991 128.714 198.192 129.116 198.593C129.517 198.994 129.718 199.624 129.718 200.483V204.627C129.718 205.444 129.526 206.043 129.144 206.426C128.766 206.809 128.168 207 127.352 207H125.616C124.869 207 124.304 206.839 123.922 206.517C123.539 206.195 123.32 205.698 123.264 205.026C123.254 204.905 123.28 204.811 123.341 204.746C123.406 204.676 123.497 204.641 123.614 204.641C123.847 204.641 123.975 204.762 123.999 205.005C124.041 205.467 124.183 205.794 124.426 205.985C124.673 206.172 125.07 206.265 125.616 206.265H127.352C127.963 206.265 128.388 206.146 128.626 205.908C128.864 205.665 128.983 205.238 128.983 204.627V203.066C128.67 203.654 128.08 203.948 127.212 203.948H125.756C124.888 203.948 124.251 203.747 123.845 203.346C123.443 202.94 123.243 202.303 123.243 201.435V200.497C123.243 199.629 123.443 198.994 123.845 198.593C124.251 198.192 124.888 197.991 125.756 197.991H127.212ZM127.212 198.726H125.756C125.098 198.726 124.636 198.857 124.37 199.118C124.108 199.379 123.978 199.839 123.978 200.497V201.435C123.978 202.093 124.108 202.555 124.37 202.821C124.636 203.082 125.098 203.213 125.756 203.213H127.212C127.874 203.213 128.334 203.085 128.591 202.828C128.852 202.567 128.983 202.107 128.983 201.449V200.483C128.983 199.825 128.852 199.368 128.591 199.111C128.334 198.854 127.874 198.726 127.212 198.726Z" fill="#10002B"/>
<g opacity="0.25">
<rect x="144" y="184" width="40" height="36" fill="#FED7D7"/>
</g>
<path d="M162.476 207H157.051C156.799 207 156.673 206.876 156.673 206.629C156.673 206.097 156.745 205.64 156.89 205.257C157.035 204.874 157.245 204.536 157.52 204.242C157.8 203.943 158.138 203.663 158.535 203.402C158.936 203.141 159.389 202.865 159.893 202.576C160.355 202.31 160.745 202.074 161.062 201.869C161.379 201.659 161.62 201.44 161.783 201.211C161.951 200.978 162.035 200.691 162.035 200.35C162.035 199.739 161.916 199.314 161.678 199.076C161.44 198.833 161.013 198.712 160.397 198.712H158.899C158.358 198.712 157.963 198.805 157.716 198.992C157.473 199.179 157.331 199.505 157.289 199.972C157.275 200.093 157.238 200.184 157.177 200.245C157.116 200.306 157.028 200.336 156.911 200.336C156.79 200.336 156.696 200.303 156.631 200.238C156.566 200.168 156.538 200.072 156.547 199.951C156.603 199.274 156.822 198.777 157.205 198.46C157.588 198.138 158.152 197.977 158.899 197.977H160.397C161.214 197.977 161.813 198.168 162.196 198.551C162.579 198.934 162.77 199.533 162.77 200.35C162.77 200.831 162.656 201.237 162.427 201.568C162.203 201.895 161.9 202.186 161.517 202.443C161.139 202.695 160.719 202.952 160.257 203.213C159.664 203.554 159.167 203.862 158.766 204.137C158.365 204.408 158.052 204.706 157.828 205.033C157.609 205.355 157.476 205.766 157.429 206.265H162.476C162.723 206.265 162.847 206.386 162.847 206.629C162.847 206.876 162.723 207 162.476 207ZM167.556 207.028C166.544 207.028 165.804 206.795 165.337 206.328C164.871 205.861 164.637 205.122 164.637 204.109V200.917C164.637 199.904 164.871 199.167 165.337 198.705C165.809 198.243 166.548 198.014 167.556 198.019H168.396C169.409 198.019 170.146 198.252 170.608 198.719C171.075 199.181 171.308 199.918 171.308 200.931V204.109C171.308 205.122 171.075 205.861 170.608 206.328C170.146 206.795 169.409 207.028 168.396 207.028H167.556ZM167.556 206.293H168.396C168.933 206.293 169.36 206.223 169.677 206.083C169.995 205.943 170.223 205.714 170.363 205.397C170.503 205.075 170.573 204.646 170.573 204.109V200.931C170.573 200.394 170.503 199.967 170.363 199.65C170.223 199.333 169.995 199.104 169.677 198.964C169.36 198.824 168.933 198.754 168.396 198.754H167.556C167.02 198.749 166.59 198.817 166.268 198.957C165.951 199.092 165.722 199.319 165.582 199.636C165.442 199.953 165.372 200.38 165.372 200.917V204.109C165.372 204.646 165.442 205.075 165.582 205.397C165.722 205.714 165.951 205.943 166.268 206.083C166.586 206.223 167.015 206.293 167.556 206.293ZM167.85 203.073C167.58 203.073 167.444 202.935 167.444 202.66V202.394C167.444 202.128 167.58 201.995 167.85 201.995H168.109C168.375 201.995 168.508 202.128 168.508 202.394V202.66C168.508 202.935 168.375 203.073 168.109 203.073H167.85Z" fill="#10002B"/>
<g opacity="0.25">
<rect x="184" y="184" width="40" height="36" fill="#FED7D7"/>
</g>
<path d="M204.267 207H198.842C198.59 207 198.464 206.876 198.464 206.629C198.464 206.097 198.536 205.64 198.681 205.257C198.826 204.874 199.036 204.536 199.311 204.242C199.591 203.943 199.929 203.663 200.326 203.402C200.727 203.141 201.18 202.865 201.684 202.576C202.146 202.31 202.536 202.074 202.853 201.869C203.17 201.659 203.411 201.44 203.574 201.211C203.742 200.978 203.826 200.691 203.826 200.35C203.826 199.739 203.707 199.314 203.469 199.076C203.231 198.833 202.804 198.712 202.188 198.712H200.69C200.149 198.712 199.754 198.805 199.507 198.992C199.264 199.179 199.122 199.505 199.08 199.972C199.066 200.093 199.029 200.184 198.968 200.245C198.907 200.306 198.819 200.336 198.702 200.336C198.581 200.336 198.487 200.303 198.422 200.238C198.357 200.168 198.329 200.072 198.338 199.951C198.394 199.274 198.613 198.777 198.996 198.46C199.379 198.138 199.943 197.977 200.69 197.977H202.188C203.005 197.977 203.604 198.168 203.987 198.551C204.37 198.934 204.561 199.533 204.561 200.35C204.561 200.831 204.447 201.237 204.218 201.568C203.994 201.895 203.691 202.186 203.308 202.443C202.93 202.695 202.51 202.952 202.048 203.213C201.455 203.554 200.958 203.862 200.557 204.137C200.156 204.408 199.843 204.706 199.619 205.033C199.4 205.355 199.267 205.766 199.22 206.265H204.267C204.514 206.265 204.638 206.386 204.638 206.629C204.638 206.876 204.514 207 204.267 207ZM208.689 207C208.442 207 208.318 206.876 208.318 206.629V198.852L208.654 198.803L207.135 200.287C207.051 200.371 206.967 200.415 206.883 200.42C206.799 200.425 206.715 200.385 206.631 200.301C206.473 200.133 206.475 199.96 206.638 199.783L208.297 198.166C208.409 198.04 208.561 197.977 208.752 197.977C208.953 197.977 209.053 198.101 209.053 198.348V206.629C209.053 206.876 208.932 207 208.689 207Z" fill="#10002B"/>
<g opacity="0.25">
<rect x="224" y="184" width="40" height="36" fill="#FED7D7"/>
</g>
<path d="M242.777 207H237.352C237.1 207 236.974 206.876 236.974 206.629C236.974 206.097 237.046 205.64 237.191 205.257C237.335 204.874 237.545 204.536 237.821 204.242C238.101 203.943 238.439 203.663 238.836 203.402C239.237 203.141 239.69 202.865 240.194 202.576C240.656 202.31 241.045 202.074 241.363 201.869C241.68 201.659 241.92 201.44 242.084 201.211C242.252 200.978 242.336 200.691 242.336 200.35C242.336 199.739 242.217 199.314 241.979 199.076C241.741 198.833 241.314 198.712 240.698 198.712H239.2C238.658 198.712 238.264 198.805 238.017 198.992C237.774 199.179 237.632 199.505 237.59 199.972C237.576 200.093 237.538 200.184 237.478 200.245C237.417 200.306 237.328 200.336 237.212 200.336C237.09 200.336 236.997 200.303 236.932 200.238C236.866 200.168 236.838 200.072 236.848 199.951C236.904 199.274 237.123 198.777 237.506 198.46C237.888 198.138 238.453 197.977 239.2 197.977H240.698C241.514 197.977 242.114 198.168 242.497 198.551C242.879 198.934 243.071 199.533 243.071 200.35C243.071 200.831 242.956 201.237 242.728 201.568C242.504 201.895 242.2 202.186 241.818 202.443C241.44 202.695 241.02 202.952 240.558 203.213C239.965 203.554 239.468 203.862 239.067 204.137C238.665 204.408 238.353 204.706 238.129 205.033C237.909 205.355 237.776 205.766 237.73 206.265H242.777C243.024 206.265 243.148 206.386 243.148 206.629C243.148 206.876 243.024 207 242.777 207ZM250.72 207H245.295C245.043 207 244.917 206.876 244.917 206.629C244.917 206.097 244.989 205.64 245.134 205.257C245.279 204.874 245.489 204.536 245.764 204.242C246.044 203.943 246.382 203.663 246.779 203.402C247.18 203.141 247.633 202.865 248.137 202.576C248.599 202.31 248.989 202.074 249.306 201.869C249.623 201.659 249.864 201.44 250.027 201.211C250.195 200.978 250.279 200.691 250.279 200.35C250.279 199.739 250.16 199.314 249.922 199.076C249.684 198.833 249.257 198.712 248.641 198.712H247.143C246.602 198.712 246.207 198.805 245.96 198.992C245.717 199.179 245.575 199.505 245.533 199.972C245.519 200.093 245.482 200.184 245.421 200.245C245.36 200.306 245.272 200.336 245.155 200.336C245.034 200.336 244.94 200.303 244.875 200.238C244.81 200.168 244.782 200.072 244.791 199.951C244.847 199.274 245.066 198.777 245.449 198.46C245.832 198.138 246.396 197.977 247.143 197.977H248.641C249.458 197.977 250.057 198.168 250.44 198.551C250.823 198.934 251.014 199.533 251.014 200.35C251.014 200.831 250.9 201.237 250.671 201.568C250.447 201.895 250.144 202.186 249.761 202.443C249.383 202.695 248.963 202.952 248.501 203.213C247.908 203.554 247.411 203.862 247.01 204.137C246.609 204.408 246.296 204.706 246.072 205.033C245.853 205.355 245.72 205.766 245.673 206.265H250.72C250.967 206.265 251.091 206.386 251.091 206.629C251.091 206.876 250.967 207 250.72 207Z" fill="#10002B"/>
<g opacity="0.25">
<rect x="264" y="184" width="20" height="36" fill="#FED7D7"/>
</g>
<circle cx="284" cy="202" r="18" fill="#FED7D7"/>
<path d="M282.124 207H276.888C276.487 207 276.286 206.804 276.286 206.412C276.286 205.787 276.384 205.255 276.58 204.816C276.781 204.373 277.035 203.999 277.343 203.696C277.656 203.388 277.987 203.129 278.337 202.919C278.687 202.704 279.012 202.511 279.31 202.338C279.828 202.044 280.26 201.79 280.605 201.575C280.955 201.36 281.217 201.141 281.389 200.917C281.562 200.693 281.648 200.42 281.648 200.098C281.648 199.543 281.548 199.169 281.347 198.978C281.151 198.782 280.78 198.684 280.234 198.684H278.736C278.298 198.684 277.973 198.742 277.763 198.859C277.553 198.976 277.42 199.193 277.364 199.51C277.332 199.697 277.269 199.839 277.175 199.937C277.082 200.035 276.94 200.084 276.748 200.084C276.552 200.084 276.403 200.033 276.3 199.93C276.198 199.823 276.156 199.669 276.174 199.468C276.272 198.81 276.531 198.32 276.951 197.998C277.371 197.671 277.966 197.508 278.736 197.508H280.234C281.112 197.508 281.763 197.72 282.187 198.145C282.612 198.57 282.824 199.221 282.824 200.098C282.824 200.658 282.687 201.127 282.411 201.505C282.136 201.878 281.774 202.21 281.326 202.499C280.878 202.784 280.398 203.071 279.884 203.36C279.511 203.575 279.156 203.789 278.82 204.004C278.489 204.219 278.204 204.468 277.966 204.753C277.733 205.038 277.579 205.395 277.504 205.824H282.124C282.516 205.824 282.712 206.02 282.712 206.412C282.712 206.804 282.516 207 282.124 207ZM286.908 207C286.091 207 285.459 206.83 285.011 206.489C284.567 206.144 284.299 205.614 284.206 204.9C284.187 204.704 284.229 204.552 284.332 204.445C284.434 204.338 284.584 204.284 284.78 204.284C285.139 204.284 285.34 204.48 285.382 204.872C285.447 205.236 285.594 205.486 285.823 205.621C286.051 205.756 286.413 205.824 286.908 205.824H288.504C289.106 205.824 289.514 205.717 289.729 205.502C289.948 205.283 290.058 204.877 290.058 204.284C290.058 203.696 289.948 203.292 289.729 203.073C289.514 202.854 289.106 202.744 288.504 202.744H287.426C287.034 202.744 286.838 202.548 286.838 202.156C286.838 201.764 287.034 201.568 287.426 201.568H289.036C289.33 201.568 289.535 201.437 289.652 201.176C289.773 200.91 289.834 200.551 289.834 200.098C289.834 199.543 289.733 199.169 289.533 198.978C289.337 198.782 288.966 198.684 288.42 198.684H287.062C286.623 198.684 286.299 198.742 286.089 198.859C285.879 198.976 285.746 199.193 285.69 199.51C285.634 199.893 285.428 200.084 285.074 200.084C284.878 200.084 284.728 200.033 284.626 199.93C284.523 199.823 284.486 199.669 284.514 199.468C284.607 198.81 284.864 198.32 285.284 197.998C285.708 197.671 286.301 197.508 287.062 197.508H288.42C289.297 197.508 289.948 197.72 290.373 198.145C290.797 198.57 291.01 199.221 291.01 200.098C291.01 200.961 290.767 201.573 290.282 201.932C290.604 202.142 290.842 202.441 290.996 202.828C291.154 203.215 291.234 203.701 291.234 204.284C291.234 205.208 291.012 205.892 290.569 206.335C290.125 206.778 289.437 207 288.504 207H286.908Z" fill="#10002B"/>
<path d="M42.9339 247H37.5089C37.2569 247 37.1309 246.876 37.1309 246.629C37.1309 246.097 37.2032 245.64 37.3479 245.257C37.4925 244.874 37.7025 244.536 37.9779 244.242C38.2579 243.943 38.5962 243.663 38.9929 243.402C39.3942 243.141 39.8469 242.865 40.3509 242.576C40.8129 242.31 41.2025 242.074 41.5199 241.869C41.8372 241.659 42.0775 241.44 42.2409 241.211C42.4089 240.978 42.4929 240.691 42.4929 240.35C42.4929 239.739 42.3739 239.314 42.1359 239.076C41.8979 238.833 41.4709 238.712 40.8549 238.712H39.3569C38.8155 238.712 38.4212 238.805 38.1739 238.992C37.9312 239.179 37.7889 239.505 37.7469 239.972C37.7329 240.093 37.6955 240.184 37.6349 240.245C37.5742 240.306 37.4855 240.336 37.3689 240.336C37.2475 240.336 37.1542 240.303 37.0889 240.238C37.0235 240.168 36.9955 240.072 37.0049 239.951C37.0609 239.274 37.2802 238.777 37.6629 238.46C38.0455 238.138 38.6102 237.977 39.3569 237.977H40.8549C41.6715 237.977 42.2712 238.168 42.6539 238.551C43.0365 238.934 43.2279 239.533 43.2279 240.35C43.2279 240.831 43.1135 241.237 42.8849 241.568C42.6609 241.895 42.3575 242.186 41.9749 242.443C41.5969 242.695 41.1769 242.952 40.7149 243.213C40.1222 243.554 39.6252 243.862 39.2239 244.137C38.8225 244.408 38.5099 244.706 38.2859 245.033C38.0665 245.355 37.9335 245.766 37.8869 246.265H42.9339C43.1812 246.265 43.3049 246.386 43.3049 246.629C43.3049 246.876 43.1812 247 42.9339 247ZM49.8692 247C49.6219 247 49.4982 246.876 49.4982 246.629L49.5542 238.985L49.7572 238.95L45.4942 244.494L45.3752 244.312L50.9402 244.305C51.0616 244.305 51.1526 244.338 51.2132 244.403C51.2786 244.468 51.3112 244.559 51.3112 244.676C51.3112 244.919 51.1876 245.04 50.9402 245.04H44.9972C44.7499 245.04 44.6262 244.919 44.6262 244.676C44.6262 244.559 44.6776 244.431 44.7802 244.291L49.4632 238.208C49.5286 238.119 49.5962 238.059 49.6662 238.026C49.7409 237.993 49.8319 237.977 49.9392 237.977C50.1726 237.977 50.2892 238.101 50.2892 238.348L50.2332 246.629C50.2332 246.876 50.1119 247 49.8692 247Z" fill="#10002B"/>
<path d="M82.5784 247H77.1534C76.9014 247 76.7754 246.876 76.7754 246.629C76.7754 246.097 76.8477 245.64 76.9924 245.257C77.1371 244.874 77.3471 244.536 77.6224 244.242C77.9024 243.943 78.2407 243.663 78.6374 243.402C79.0387 243.141 79.4914 242.865 79.9954 242.576C80.4574 242.31 80.8471 242.074 81.1644 241.869C81.4817 241.659 81.7221 241.44 81.8854 241.211C82.0534 240.978 82.1374 240.691 82.1374 240.35C82.1374 239.739 82.0184 239.314 81.7804 239.076C81.5424 238.833 81.1154 238.712 80.4994 238.712H79.0014C78.4601 238.712 78.0657 238.805 77.8184 238.992C77.5757 239.179 77.4334 239.505 77.3914 239.972C77.3774 240.093 77.3401 240.184 77.2794 240.245C77.2187 240.306 77.1301 240.336 77.0134 240.336C76.8921 240.336 76.7987 240.303 76.7334 240.238C76.6681 240.168 76.6401 240.072 76.6494 239.951C76.7054 239.274 76.9247 238.777 77.3074 238.46C77.6901 238.138 78.2547 237.977 79.0014 237.977H80.4994C81.3161 237.977 81.9157 238.168 82.2984 238.551C82.6811 238.934 82.8724 239.533 82.8724 240.35C82.8724 240.831 82.7581 241.237 82.5294 241.568C82.3054 241.895 82.0021 242.186 81.6194 242.443C81.2414 242.695 80.8214 242.952 80.3594 243.213C79.7667 243.554 79.2697 243.862 78.8684 244.137C78.4671 244.408 78.1544 244.706 77.9304 245.033C77.7111 245.355 77.5781 245.766 77.5314 246.265H82.5784C82.8257 246.265 82.9494 246.386 82.9494 246.629C82.9494 246.876 82.8257 247 82.5784 247ZM87.2318 247C86.4384 247 85.8388 246.83 85.4328 246.489C85.0268 246.148 84.7958 245.614 84.7398 244.886C84.7304 244.765 84.7584 244.671 84.8238 244.606C84.8891 244.536 84.9824 244.501 85.1038 244.501C85.3324 244.501 85.4561 244.622 85.4748 244.865C85.5214 245.383 85.6754 245.747 85.9368 245.957C86.2028 246.162 86.6344 246.265 87.2318 246.265H88.6878C89.3551 246.265 89.8171 246.134 90.0738 245.873C90.3351 245.607 90.4658 245.145 90.4658 244.487V243.521C90.4658 242.863 90.3351 242.403 90.0738 242.142C89.8124 241.881 89.3504 241.75 88.6878 241.75H87.6518C86.7791 241.75 86.1748 241.899 85.8388 242.198C85.7641 242.263 85.6894 242.31 85.6148 242.338C85.5401 242.366 85.4514 242.364 85.3488 242.331L85.2718 242.31C85.0664 242.254 84.9638 242.119 84.9638 241.904V238.348C84.9638 238.101 85.0851 237.977 85.3278 237.977H90.7598C91.0024 237.977 91.1238 238.101 91.1238 238.348C91.1238 238.591 91.0024 238.712 90.7598 238.712H85.6988V241.4C86.1654 241.143 86.8164 241.015 87.6518 241.015H88.6878C89.5558 241.015 90.1904 241.216 90.5918 241.617C90.9978 242.018 91.2008 242.653 91.2008 243.521V244.487C91.2008 245.355 90.9978 245.992 90.5918 246.398C90.1904 246.799 89.5558 247 88.6878 247H87.2318Z" fill="#10002B"/>
<path d="M122.572 247H117.147C116.895 247 116.769 246.876 116.769 246.629C116.769 246.097 116.841 245.64 116.986 245.257C117.13 244.874 117.34 244.536 117.616 244.242C117.896 243.943 118.234 243.663 118.631 243.402C119.032 243.141 119.485 242.865 119.989 242.576C120.451 242.31 120.84 242.074 121.158 241.869C121.475 241.659 121.715 241.44 121.879 241.211C122.047 240.978 122.131 240.691 122.131 240.35C122.131 239.739 122.012 239.314 121.774 239.076C121.536 238.833 121.109 238.712 120.493 238.712H118.995C118.453 238.712 118.059 238.805 117.812 238.992C117.569 239.179 117.427 239.505 117.385 239.972C117.371 240.093 117.333 240.184 117.273 240.245C117.212 240.306 117.123 240.336 117.007 240.336C116.885 240.336 116.792 240.303 116.727 240.238C116.661 240.168 116.633 240.072 116.643 239.951C116.699 239.274 116.918 238.777 117.301 238.46C117.683 238.138 118.248 237.977 118.995 237.977H120.493C121.309 237.977 121.909 238.168 122.292 238.551C122.674 238.934 122.866 239.533 122.866 240.35C122.866 240.831 122.751 241.237 122.523 241.568C122.299 241.895 121.995 242.186 121.613 242.443C121.235 242.695 120.815 242.952 120.353 243.213C119.76 243.554 119.263 243.862 118.862 244.137C118.46 244.408 118.148 244.706 117.924 245.033C117.704 245.355 117.571 245.766 117.525 246.265H122.572C122.819 246.265 122.943 246.386 122.943 246.629C122.943 246.876 122.819 247 122.572 247ZM127.246 246.986C126.378 246.986 125.741 246.785 125.335 246.384C124.934 245.983 124.733 245.353 124.733 244.494V240.35C124.733 239.533 124.924 238.934 125.307 238.551C125.69 238.168 126.289 237.977 127.106 237.977H128.842C129.589 237.977 130.153 238.138 130.536 238.46C130.919 238.777 131.136 239.274 131.187 239.951C131.201 240.072 131.175 240.168 131.11 240.238C131.049 240.303 130.958 240.336 130.837 240.336C130.604 240.336 130.475 240.215 130.452 239.972C130.415 239.505 130.272 239.179 130.025 238.992C129.782 238.805 129.388 238.712 128.842 238.712H127.106C126.495 238.712 126.068 238.833 125.825 239.076C125.587 239.314 125.468 239.739 125.468 240.35V241.911C125.785 241.323 126.378 241.029 127.246 241.029H128.702C129.57 241.029 130.205 241.232 130.606 241.638C131.007 242.039 131.208 242.674 131.208 243.542V244.48C131.208 245.343 131.007 245.978 130.606 246.384C130.205 246.785 129.57 246.986 128.702 246.986H127.246ZM127.246 246.251H128.702C129.36 246.251 129.82 246.12 130.081 245.859C130.342 245.593 130.473 245.133 130.473 244.48V243.542C130.473 242.879 130.342 242.417 130.081 242.156C129.82 241.895 129.36 241.764 128.702 241.764H127.246C126.579 241.764 126.114 241.895 125.853 242.156C125.596 242.413 125.468 242.87 125.468 243.528V244.494C125.468 245.147 125.596 245.605 125.853 245.866C126.114 246.123 126.579 246.251 127.246 246.251Z" fill="#10002B"/>
<path d="M163.419 247H157.994C157.742 247 157.616 246.876 157.616 246.629C157.616 246.097 157.689 245.64 157.833 245.257C157.978 244.874 158.188 244.536 158.463 244.242C158.743 243.943 159.082 243.663 159.478 243.402C159.88 243.141 160.332 242.865 160.836 242.576C161.298 242.31 161.688 242.074 162.005 241.869C162.323 241.659 162.563 241.44 162.726 241.211C162.894 240.978 162.978 240.691 162.978 240.35C162.978 239.739 162.859 239.314 162.621 239.076C162.383 238.833 161.956 238.712 161.34 238.712H159.842C159.301 238.712 158.907 238.805 158.659 238.992C158.417 239.179 158.274 239.505 158.232 239.972C158.218 240.093 158.181 240.184 158.12 240.245C158.06 240.306 157.971 240.336 157.854 240.336C157.733 240.336 157.64 240.303 157.574 240.238C157.509 240.168 157.481 240.072 157.49 239.951C157.546 239.274 157.766 238.777 158.148 238.46C158.531 238.138 159.096 237.977 159.842 237.977H161.34C162.157 237.977 162.757 238.168 163.139 238.551C163.522 238.934 163.713 239.533 163.713 240.35C163.713 240.831 163.599 241.237 163.37 241.568C163.146 241.895 162.843 242.186 162.46 242.443C162.082 242.695 161.662 242.952 161.2 243.213C160.608 243.554 160.111 243.862 159.709 244.137C159.308 244.408 158.995 244.706 158.771 245.033C158.552 245.355 158.419 245.766 158.372 246.265H163.419C163.667 246.265 163.79 246.386 163.79 246.629C163.79 246.876 163.667 247 163.419 247ZM166.981 247C166.733 247 166.612 246.872 166.617 246.615C166.621 245.957 166.654 245.378 166.715 244.879C166.775 244.38 166.878 243.939 167.023 243.556C167.167 243.173 167.37 242.826 167.632 242.513C167.898 242.2 168.236 241.902 168.647 241.617C168.983 241.379 169.253 241.127 169.459 240.861C169.664 240.595 169.816 240.292 169.914 239.951C170.016 239.606 170.077 239.193 170.096 238.712H165.483C165.235 238.712 165.112 238.591 165.112 238.348C165.112 238.101 165.235 237.977 165.483 237.977H170.467C170.709 237.977 170.831 238.101 170.831 238.348C170.831 238.978 170.772 239.526 170.656 239.993C170.544 240.46 170.357 240.873 170.096 241.232C169.839 241.587 169.496 241.913 169.067 242.212C168.735 242.445 168.46 242.686 168.241 242.933C168.021 243.18 167.846 243.465 167.716 243.787C167.59 244.104 167.499 244.492 167.443 244.949C167.391 245.406 167.361 245.962 167.352 246.615C167.347 246.872 167.223 247 166.981 247Z" fill="#10002B"/>
<path d="M202.503 247H197.078C196.826 247 196.7 246.876 196.7 246.629C196.7 246.097 196.773 245.64 196.917 245.257C197.062 244.874 197.272 244.536 197.547 244.242C197.827 243.943 198.166 243.663 198.562 243.402C198.964 243.141 199.416 242.865 199.92 242.576C200.382 242.31 200.772 242.074 201.089 241.869C201.407 241.659 201.647 241.44 201.81 241.211C201.978 240.978 202.062 240.691 202.062 240.35C202.062 239.739 201.943 239.314 201.705 239.076C201.467 238.833 201.04 238.712 200.424 238.712H198.926C198.385 238.712 197.991 238.805 197.743 238.992C197.501 239.179 197.358 239.505 197.316 239.972C197.302 240.093 197.265 240.184 197.204 240.245C197.144 240.306 197.055 240.336 196.938 240.336C196.817 240.336 196.724 240.303 196.658 240.238C196.593 240.168 196.565 240.072 196.574 239.951C196.63 239.274 196.85 238.777 197.232 238.46C197.615 238.138 198.18 237.977 198.926 237.977H200.424C201.241 237.977 201.841 238.168 202.223 238.551C202.606 238.934 202.797 239.533 202.797 240.35C202.797 240.831 202.683 241.237 202.454 241.568C202.23 241.895 201.927 242.186 201.544 242.443C201.166 242.695 200.746 242.952 200.284 243.213C199.692 243.554 199.195 243.862 198.793 244.137C198.392 244.408 198.079 244.706 197.855 245.033C197.636 245.355 197.503 245.766 197.456 246.265H202.503C202.751 246.265 202.874 246.386 202.874 246.629C202.874 246.876 202.751 247 202.503 247ZM210.097 242.324C210.885 242.679 211.28 243.404 211.28 244.501C211.28 245.364 211.079 245.997 210.678 246.398C210.276 246.799 209.642 247 208.774 247H207.178C206.31 247 205.673 246.799 205.267 246.398C204.865 245.997 204.665 245.364 204.665 244.501C204.665 243.39 205.075 242.658 205.897 242.303C205.271 241.925 204.959 241.269 204.959 240.336C204.959 239.524 205.15 238.929 205.533 238.551C205.915 238.168 206.515 237.977 207.332 237.977H208.69C209.506 237.977 210.104 238.168 210.482 238.551C210.864 238.929 211.056 239.524 211.056 240.336C211.056 241.293 210.736 241.955 210.097 242.324ZM207.332 238.712C206.72 238.712 206.293 238.833 206.051 239.076C205.813 239.314 205.694 239.734 205.694 240.336C205.694 240.961 205.813 241.398 206.051 241.645C206.289 241.888 206.699 242.009 207.283 242.009L208.9 242.002C209.264 242.002 209.548 241.941 209.754 241.82C209.964 241.694 210.111 241.51 210.195 241.267C210.279 241.02 210.321 240.709 210.321 240.336C210.321 239.734 210.202 239.314 209.964 239.076C209.726 238.833 209.301 238.712 208.69 238.712H207.332ZM208.774 246.265C209.436 246.265 209.896 246.137 210.153 245.88C210.414 245.619 210.545 245.159 210.545 244.501C210.545 243.843 210.414 243.386 210.153 243.129C209.896 242.872 209.436 242.744 208.774 242.744H207.178C206.51 242.744 206.046 242.872 205.785 243.129C205.528 243.386 205.4 243.843 205.4 244.501C205.4 245.159 205.528 245.619 205.785 245.88C206.046 246.137 206.51 246.265 207.178 246.265H208.774Z" fill="#10002B"/>
<path d="M242.572 247H237.147C236.895 247 236.769 246.876 236.769 246.629C236.769 246.097 236.841 245.64 236.986 245.257C237.13 244.874 237.34 244.536 237.616 244.242C237.896 243.943 238.234 243.663 238.631 243.402C239.032 243.141 239.485 242.865 239.989 242.576C240.451 242.31 240.84 242.074 241.158 241.869C241.475 241.659 241.715 241.44 241.879 241.211C242.047 240.978 242.131 240.691 242.131 240.35C242.131 239.739 242.012 239.314 241.774 239.076C241.536 238.833 241.109 238.712 240.493 238.712H238.995C238.453 238.712 238.059 238.805 237.812 238.992C237.569 239.179 237.427 239.505 237.385 239.972C237.371 240.093 237.333 240.184 237.273 240.245C237.212 240.306 237.123 240.336 237.007 240.336C236.885 240.336 236.792 240.303 236.727 240.238C236.661 240.168 236.633 240.072 236.643 239.951C236.699 239.274 236.918 238.777 237.301 238.46C237.683 238.138 238.248 237.977 238.995 237.977H240.493C241.309 237.977 241.909 238.168 242.292 238.551C242.674 238.934 242.866 239.533 242.866 240.35C242.866 240.831 242.751 241.237 242.523 241.568C242.299 241.895 241.995 242.186 241.613 242.443C241.235 242.695 240.815 242.952 240.353 243.213C239.76 243.554 239.263 243.862 238.862 244.137C238.46 244.408 238.148 244.706 237.924 245.033C237.704 245.355 237.571 245.766 237.525 246.265H242.572C242.819 246.265 242.943 246.386 242.943 246.629C242.943 246.876 242.819 247 242.572 247ZM248.702 237.991C249.57 237.991 250.205 238.192 250.606 238.593C251.007 238.994 251.208 239.624 251.208 240.483V244.627C251.208 245.444 251.017 246.043 250.634 246.426C250.256 246.809 249.659 247 248.842 247H247.106C246.359 247 245.795 246.839 245.412 246.517C245.029 246.195 244.81 245.698 244.754 245.026C244.745 244.905 244.77 244.811 244.831 244.746C244.896 244.676 244.987 244.641 245.104 244.641C245.337 244.641 245.466 244.762 245.489 245.005C245.531 245.467 245.673 245.794 245.916 245.985C246.163 246.172 246.56 246.265 247.106 246.265H248.842C249.453 246.265 249.878 246.146 250.116 245.908C250.354 245.665 250.473 245.238 250.473 244.627V243.066C250.16 243.654 249.57 243.948 248.702 243.948H247.246C246.378 243.948 245.741 243.747 245.335 243.346C244.934 242.94 244.733 242.303 244.733 241.435V240.497C244.733 239.629 244.934 238.994 245.335 238.593C245.741 238.192 246.378 237.991 247.246 237.991H248.702ZM248.702 238.726H247.246C246.588 238.726 246.126 238.857 245.86 239.118C245.599 239.379 245.468 239.839 245.468 240.497V241.435C245.468 242.093 245.599 242.555 245.86 242.821C246.126 243.082 246.588 243.213 247.246 243.213H248.702C249.365 243.213 249.824 243.085 250.081 242.828C250.342 242.567 250.473 242.107 250.473 241.449V240.483C250.473 239.825 250.342 239.368 250.081 239.111C249.824 238.854 249.365 238.726 248.702 238.726Z" fill="#10002B"/>
<path d="M278.826 246.986C278.033 246.986 277.433 246.818 277.027 246.482C276.621 246.141 276.39 245.607 276.334 244.879C276.325 244.758 276.353 244.664 276.418 244.599C276.483 244.529 276.577 244.494 276.698 244.494C276.927 244.494 277.05 244.615 277.069 244.858C277.116 245.376 277.27 245.738 277.531 245.943C277.797 246.148 278.229 246.251 278.826 246.251H280.422C281.089 246.251 281.551 246.123 281.808 245.866C282.069 245.605 282.2 245.147 282.2 244.494C282.2 243.836 282.069 243.379 281.808 243.122C281.551 242.861 281.089 242.73 280.422 242.73H279.127C278.88 242.73 278.756 242.609 278.756 242.366C278.756 242.119 278.88 241.995 279.127 241.995H280.611C281.129 241.99 281.486 241.853 281.682 241.582C281.878 241.307 281.976 240.896 281.976 240.35C281.976 239.739 281.857 239.314 281.619 239.076C281.381 238.833 280.954 238.712 280.338 238.712H278.98C278.439 238.712 278.044 238.805 277.797 238.992C277.554 239.179 277.412 239.505 277.37 239.972C277.342 240.215 277.216 240.336 276.992 240.336C276.871 240.336 276.777 240.303 276.712 240.238C276.647 240.168 276.621 240.072 276.635 239.951C276.686 239.274 276.903 238.777 277.286 238.46C277.669 238.138 278.233 237.977 278.98 237.977H280.338C281.155 237.977 281.754 238.168 282.137 238.551C282.52 238.934 282.711 239.533 282.711 240.35C282.711 241.288 282.373 241.93 281.696 242.275C282.125 242.457 282.438 242.732 282.634 243.101C282.835 243.465 282.935 243.929 282.935 244.494C282.935 245.353 282.734 245.983 282.333 246.384C281.932 246.785 281.295 246.986 280.422 246.986H278.826ZM287.727 247.028C286.714 247.028 285.975 246.795 285.508 246.328C285.041 245.861 284.808 245.122 284.808 244.109V240.917C284.808 239.904 285.041 239.167 285.508 238.705C285.979 238.243 286.719 238.014 287.727 238.019H288.567C289.58 238.019 290.317 238.252 290.779 238.719C291.246 239.181 291.479 239.918 291.479 240.931V244.109C291.479 245.122 291.246 245.861 290.779 246.328C290.317 246.795 289.58 247.028 288.567 247.028H287.727ZM287.727 246.293H288.567C289.104 246.293 289.531 246.223 289.848 246.083C290.165 245.943 290.394 245.714 290.534 245.397C290.674 245.075 290.744 244.646 290.744 244.109V240.931C290.744 240.394 290.674 239.967 290.534 239.65C290.394 239.333 290.165 239.104 289.848 238.964C289.531 238.824 289.104 238.754 288.567 238.754H287.727C287.19 238.749 286.761 238.817 286.439 238.957C286.122 239.092 285.893 239.319 285.753 239.636C285.613 239.953 285.543 240.38 285.543 240.917V244.109C285.543 244.646 285.613 245.075 285.753 245.397C285.893 245.714 286.122 245.943 286.439 246.083C286.756 246.223 287.186 246.293 287.727 246.293ZM288.021 243.073C287.75 243.073 287.615 242.935 287.615 242.66V242.394C287.615 242.128 287.75 241.995 288.021 241.995H288.28C288.546 241.995 288.679 242.128 288.679 242.394V242.66C288.679 242.935 288.546 243.073 288.28 243.073H288.021Z" fill="#10002B"/>
<path d="M40.617 286.986C39.8236 286.986 39.224 286.818 38.818 286.482C38.412 286.141 38.181 285.607 38.125 284.879C38.1156 284.758 38.1436 284.664 38.209 284.599C38.2743 284.529 38.3676 284.494 38.489 284.494C38.7176 284.494 38.8413 284.615 38.86 284.858C38.9066 285.376 39.0606 285.738 39.322 285.943C39.588 286.148 40.0196 286.251 40.617 286.251H42.213C42.8803 286.251 43.3423 286.123 43.599 285.866C43.8603 285.605 43.991 285.147 43.991 284.494C43.991 283.836 43.8603 283.379 43.599 283.122C43.3423 282.861 42.8803 282.73 42.213 282.73H40.918C40.6706 282.73 40.547 282.609 40.547 282.366C40.547 282.119 40.6706 281.995 40.918 281.995H42.402C42.92 281.99 43.277 281.853 43.473 281.582C43.669 281.307 43.767 280.896 43.767 280.35C43.767 279.739 43.648 279.314 43.41 279.076C43.172 278.833 42.745 278.712 42.129 278.712H40.771C40.2296 278.712 39.8353 278.805 39.588 278.992C39.3453 279.179 39.203 279.505 39.161 279.972C39.133 280.215 39.007 280.336 38.783 280.336C38.6616 280.336 38.5683 280.303 38.503 280.238C38.4376 280.168 38.412 280.072 38.426 279.951C38.4773 279.274 38.6943 278.777 39.077 278.46C39.4596 278.138 40.0243 277.977 40.771 277.977H42.129C42.9456 277.977 43.5453 278.168 43.928 278.551C44.3106 278.934 44.502 279.533 44.502 280.35C44.502 281.288 44.1636 281.93 43.487 282.275C43.9163 282.457 44.229 282.732 44.425 283.101C44.6256 283.465 44.726 283.929 44.726 284.494C44.726 285.353 44.5253 285.983 44.124 286.384C43.7226 286.785 43.0856 286.986 42.213 286.986H40.617ZM48.8601 287C48.6128 287 48.4891 286.876 48.4891 286.629V278.852L48.8251 278.803L47.3061 280.287C47.2221 280.371 47.1381 280.415 47.0541 280.42C46.9701 280.425 46.8861 280.385 46.8021 280.301C46.6435 280.133 46.6458 279.96 46.8091 279.783L48.4681 278.166C48.5801 278.04 48.7318 277.977 48.9231 277.977C49.1238 277.977 49.2241 278.101 49.2241 278.348V286.629C49.2241 286.876 49.1028 287 48.8601 287Z" fill="#10002B"/>
</g>
<defs>
<filter id="filter0_dd_413_6607" x="0" y="0" width="369" height="336" filterUnits="userSpaceOnUse" color-interpolation-filters="sRGB">
<feFlood flood-opacity="0" result="BackgroundImageFix"/>
<feColorMatrix in="SourceAlpha" type="matrix" values="0 0 0 0 0 0 0 0 0 0 0 0 0 0 0 0 0 0 127 0" result="hardAlpha"/>
<feMorphology radius="2" operator="erode" in="SourceAlpha" result="effect1_dropShadow_413_6607"/>
<feOffset dy="4"/>
<feGaussianBlur stdDeviation="3"/>
<feColorMatrix type="matrix" values="0 0 0 0 0 0 0 0 0 0 0 0 0 0 0 0 0 0 0.05 0"/>
<feBlend mode="normal" in2="BackgroundImageFix" result="effect1_dropShadow_413_6607"/>
<feColorMatrix in="SourceAlpha" type="matrix" values="0 0 0 0 0 0 0 0 0 0 0 0 0 0 0 0 0 0 127 0" result="hardAlpha"/>
<feMorphology radius="3" operator="erode" in="SourceAlpha" result="effect2_dropShadow_413_6607"/>
<feOffset dy="10"/>
<feGaussianBlur stdDeviation="7.5"/>
<feColorMatrix type="matrix" values="0 0 0 0 0 0 0 0 0 0 0 0 0 0 0 0 0 0 0.1 0"/>
<feBlend mode="normal" in2="effect1_dropShadow_413_6607" result="effect2_dropShadow_413_6607"/>
<feBlend mode="normal" in="SourceGraphic" in2="effect2_dropShadow_413_6607" result="shape"/>
</filter>
<clipPath id="clip0_413_6607">
<rect width="87" height="32" fill="white" transform="translate(120.5 18)"/>
</clipPath>
</defs>
</svg>
