<svg width="48" height="48" viewBox="0 0 48 48" fill="none" xmlns="http://www.w3.org/2000/svg">
<path d="M24 0.75C36.75 0.75 47.25 11.25 47.25 24C47.25 36.8438 36.75 47.25 24 47.25C11.1562 47.25 0.75 36.8438 0.75 24C0.75 11.25 11.1562 0.75 24 0.75ZM24 44.25C35.1562 44.25 44.25 35.1562 44.25 24C44.25 12.8438 35.0625 3.75 24 3.75C12.75 3.75 3.75 12.9375 3.75 24C3.75 35.25 12.8438 44.25 24 44.25ZM37.2188 18.5625L20.3438 35.3438C19.875 35.7188 19.125 35.7188 18.75 35.3438L10.6875 27.1875C10.2188 26.7188 10.2188 26.0625 10.6875 25.5938L11.4375 24.8438C11.9062 24.375 12.6562 24.375 13.0312 24.8438L19.5 31.3125L34.875 16.125C35.25 15.6562 36 15.6562 36.4688 16.125L37.2188 16.9688C37.6875 17.3438 37.6875 18.0938 37.2188 18.5625Z" fill="#7B2CBF"/>
</svg>
