<svg width="19" height="17" viewBox="0 0 19 17" fill="none" xmlns="http://www.w3.org/2000/svg">
<path d="M13.0312 10.875L13.6562 10.25C13.7812 10.125 14 10.2188 14 10.375V15.5C14 16.3438 13.3125 17 12.5 17H1.5C0.65625 17 0 16.3438 0 15.5V4.5C0 3.6875 0.65625 3 1.5 3H10.625C10.7812 3 10.875 3.21875 10.75 3.34375L10.125 3.96875C10.0938 4 10.0312 4 10 4H1.5C1.21875 4 1 4.25 1 4.5V15.5C1 15.7812 1.21875 16 1.5 16H12.5C12.75 16 13 15.7812 13 15.5V11C13 10.9688 13 10.9062 13.0312 10.875ZM17.5938 4.90625L7.84375 14.6562L4.71875 15C4.28125 15.0625 3.9375 14.7188 4 14.2812L4.34375 11.1562L14.0938 1.40625C14.625 0.875 15.4375 0.875 15.9688 1.40625L17.5938 3.03125C18.125 3.5625 18.125 4.375 17.5938 4.90625ZM14.6875 6.40625L12.5938 4.3125L5.28125 11.625L5.03125 13.9688L7.375 13.7188L14.6875 6.40625ZM16.9062 3.75L15.25 2.09375C15.125 2 14.9375 1.96875 14.8125 2.09375L13.3125 3.625L15.375 5.6875L16.9062 4.1875C17.0312 4.0625 17.0312 3.875 16.9062 3.75Z" fill="#7B2CBF"/>
</svg>
